<svg xmlns="http://www.w3.org/2000/svg" viewBox="0 0 32 32" fill="none">
  <rect width="32" height="32" rx="9" fill="url(#talent_grad)"/>
  <path d="M6 9C6 7.89543 6.89543 7 8 7H24C25.1046 7 26 7.89543 26 9V10.5C26 11.0523 25.5523 11.5 25 11.5H18V24.5C18 25.3284 17.3284 26 16 26C14.6716 26 14 25.3284 14 24.5V11.5H7C6.44772 11.5 6 11.0523 6 10.5V9Z" fill="white"/>
  <path d="M22 15L23.2 17.8L26 19L23.2 20.2L22 23L20.8 20.2L18 19L20.8 17.8L22 15Z" fill="#FACC15"/>
  <defs>
    <linearGradient id="talent_grad" x1="0" y1="0" x2="32" y2="32" gradientUnits="userSpaceOnUse">
      <stop stop-color="#2563EB"/>
      <stop offset="1" stop-color="#7C3AED"/>
    </linearGradient>
  </defs>
</svg>